<?xml version="1.0" encoding="utf-8"?>
<!-- Generator: Adobe Illustrator 18.0.0, SVG Export Plug-In . SVG Version: 6.00 Build 0)  -->
<!DOCTYPE svg PUBLIC "-//W3C//DTD SVG 1.1//EN" "http://www.w3.org/Graphics/SVG/1.1/DTD/svg11.dtd">
<svg version="1.1" id="Camada_1" xmlns="http://www.w3.org/2000/svg" xmlns:xlink="http://www.w3.org/1999/xlink" x="0px" y="0px"
	 viewBox="0 0 105 24.1" enable-background="new 0 0 105 24.1" xml:space="preserve">
<rect x="0" y="0" fill="#FEFEFE" width="105" height="24.1"/>
<path fill="#F86F11" d="M101,24.1h4.1V0H101v1.9h1.9v20.4H101V24.1z"/>
<path fill="#FA460F" d="M4.1,0L0,0l0,24.1h4.1v-1.9H2.2V1.9h1.9V0z"/>
<g>
	<path fill="#E93D0C" d="M28.2,16.6l0.2,0.9h0l0.2-0.9l3-11.5H34l-4.5,14.8h-2.1L22.8,5.1h2.3L28.2,16.6z"/>
	<path fill="#E93D0C" d="M44.1,14.5c0,1.8-0.5,3.2-1.4,4.1s-2.2,1.4-3.8,1.4c-1.6,0-2.8-0.5-3.7-1.4c-0.9-1-1.3-2.3-1.3-4.1v-4.1
		c0-1.8,0.4-3.2,1.3-4.1c0.9-1,2.1-1.5,3.7-1.5c1.6,0,2.9,0.5,3.8,1.5c0.9,1,1.4,2.3,1.4,4.1V14.5z M41.9,10.4
		c0-1.3-0.3-2.3-0.8-2.9c-0.5-0.7-1.2-1-2.2-1c-0.9,0-1.6,0.3-2.1,1c-0.5,0.7-0.7,1.6-0.7,2.9v4.1c0,1.3,0.2,2.3,0.7,3
		c0.5,0.7,1.2,1,2.1,1c1,0,1.7-0.3,2.2-1c0.5-0.7,0.7-1.6,0.7-3V10.4z"/>
	<path fill="#E93D0C" d="M47.5,18.3h5.8v1.6h-8V5.1h2.2V18.3z"/>
	<path fill="#E93D0C" d="M59.9,6.7H56v13.2h-2.2V6.7h-3.9V5.1h9.9V6.7z"/>
	<path fill="#E93D0C" d="M66.4,16.1h-4.8l-1.1,3.8h-2.2L63,5.1h2.1l4.6,14.8h-2.2L66.4,16.1z M62.1,14.5h3.8L64,7.8h0L62.1,14.5z"/>
	<path fill="#E93D0C" d="M72.2,13.5v6.4H70V5.1h4.8c1.5,0,2.6,0.4,3.3,1.1c0.7,0.7,1.1,1.7,1.1,3.1c0,0.8-0.2,1.5-0.6,2
		c-0.4,0.6-0.9,1-1.7,1.3c0.8,0.3,1.3,0.7,1.6,1.3c0.3,0.6,0.5,1.3,0.5,2.2v1.3c0,0.5,0,0.9,0.1,1.3c0.1,0.4,0.2,0.7,0.5,0.9v0.3
		h-2.3c-0.2-0.2-0.4-0.6-0.5-1c-0.1-0.4-0.1-0.9-0.1-1.4v-1.2c0-0.8-0.2-1.5-0.5-2s-0.9-0.7-1.5-0.7H72.2z M72.2,11.9h2.4
		c0.8,0,1.5-0.2,1.8-0.7c0.4-0.4,0.6-1.1,0.6-1.9c0-0.9-0.2-1.5-0.5-2c-0.4-0.5-0.9-0.7-1.7-0.7h-2.6V11.9z"/>
</g>
</svg>
