<?xml version="1.0" encoding="utf-8"?>
<!-- Generator: Adobe Illustrator 18.0.0, SVG Export Plug-In . SVG Version: 6.00 Build 0)  -->
<!DOCTYPE svg PUBLIC "-//W3C//DTD SVG 1.1//EN" "http://www.w3.org/Graphics/SVG/1.1/DTD/svg11.dtd">
<svg version="1.1" id="Camada_1" xmlns="http://www.w3.org/2000/svg" xmlns:xlink="http://www.w3.org/1999/xlink" x="0px" y="0px"
	 viewBox="0 0 27 41" enable-background="new 0 0 27 41" xml:space="preserve">
<path fill="#8E8E8E" d="M13.5,0C6.1,0,0,6.1,0,13.6c0,3,1.9,7.9,5.9,15c2.8,5,5.5,9.2,5.6,9.4l2,3.1l2-3.1c0.1-0.2,2.9-4.4,5.6-9.4
	c3.9-7.1,5.9-12,5.9-15C27,6.1,20.9,0,13.5,0z M13.5,20.5c-3.9,0-7-3.1-7-7s3.1-7,7-7s7,3.1,7,7S17.4,20.5,13.5,20.5z"/>
</svg>
