<?xml version="1.0" encoding="utf-8"?>
<!-- Generator: Adobe Illustrator 18.0.0, SVG Export Plug-In . SVG Version: 6.00 Build 0)  -->
<!DOCTYPE svg PUBLIC "-//W3C//DTD SVG 1.1//EN" "http://www.w3.org/Graphics/SVG/1.1/DTD/svg11.dtd">
<svg version="1.1" id="Camada_1" xmlns="http://www.w3.org/2000/svg" xmlns:xlink="http://www.w3.org/1999/xlink" x="0px" y="0px"
	 viewBox="0 0 35 34" enable-background="new 0 0 35 34" xml:space="preserve">
<path fill-rule="evenodd" clip-rule="evenodd" fill="#F86F11" d="M5,0h30v34H5c-2.8,0-5-2.2-5-5V5C0,2.2,2.2,0,5,0z"/>
<path fill="#FFFFFF" d="M26.8,25H9c-0.3,0-0.6-0.2-0.6-0.5V17H6.6c-0.2,0-0.4-0.1-0.5-0.4c-0.1-0.2,0-0.5,0.2-0.6l11.6-10
	C18,6,18.3,6,18.5,6.1l11.3,10c0.2,0.2,0.2,0.4,0.1,0.6c-0.1,0.2-0.3,0.3-0.5,0.3h-2.1v7.4C27.4,24.8,27.1,25,26.8,25z M9.6,23.9
	h16.6v-7.4c0-0.3,0.3-0.5,0.6-0.5H28l-9.9-8.7L8.1,16h1c0.3,0,0.6,0.2,0.6,0.5L9.6,23.9L9.6,23.9z"/>
</svg>
