<?xml version="1.0" encoding="utf-8"?>
<!-- Generator: Adobe Illustrator 18.0.0, SVG Export Plug-In . SVG Version: 6.00 Build 0)  -->
<!DOCTYPE svg PUBLIC "-//W3C//DTD SVG 1.1//EN" "http://www.w3.org/Graphics/SVG/1.1/DTD/svg11.dtd">
<svg version="1.1" id="Camada_1" xmlns="http://www.w3.org/2000/svg" xmlns:xlink="http://www.w3.org/1999/xlink" x="0px" y="0px"
	 viewBox="0 0 9 23" enable-background="new 0 0 9 23" xml:space="preserve">
<path fill-rule="evenodd" clip-rule="evenodd" fill="#F84F10" d="M5.7,17.1h0.5C8,17.1,9,18.3,9,20.7c0,0.9-0.2,1.5-0.5,1.8
	C8.2,22.8,7.7,23,6.8,23H6.3c0.3-0.8,0.4-1.6,0.4-2.2C6.7,19.5,6.3,18.3,5.7,17.1z M6.2,0h0.6c0.8,0,1.3,0.2,1.6,0.5
	c0.3,0.3,0.4,0.9,0.4,1.8c0,2.4-0.9,3.6-2.7,3.6H5.6c0.6-1.2,1-2.4,1-3.8C6.5,1.4,6.4,0.7,6.2,0z M1.8,1.4C2.9,0.7,4.2,0.2,5.7,0
	c0.2,0.7,0.3,1.5,0.3,2.2c0,1.2-0.3,2.4-1,3.8H4.7c-1.2,0-1.9,1.8-1.9,5.5c0,3.8,0.6,5.7,1.9,5.7H5c0.7,1.3,1.1,2.5,1.1,3.7
	c0,0.7-0.1,1.5-0.4,2.2c-1.3-0.2-2.6-0.7-3.8-1.4c-0.6-1.5-1-3.2-1.3-4.9C0.1,15.1,0,13.4,0,11.5c0-1.9,0.1-3.6,0.4-5.3
	C0.7,4.5,1.2,2.9,1.8,1.4z"/>
</svg>
