<?xml version="1.0" encoding="utf-8"?>
<!-- Generator: Adobe Illustrator 18.0.0, SVG Export Plug-In . SVG Version: 6.00 Build 0)  -->
<!DOCTYPE svg PUBLIC "-//W3C//DTD SVG 1.1//EN" "http://www.w3.org/Graphics/SVG/1.1/DTD/svg11.dtd">
<svg version="1.1" id="Camada_1" xmlns="http://www.w3.org/2000/svg" xmlns:xlink="http://www.w3.org/1999/xlink" x="0px" y="0px"
	 viewBox="0 0 14.4 20.4" enable-background="new 0 0 14.4 20.4" xml:space="preserve">
<path fill="#9A9999" d="M14.4,17.9c-0.1,0.3-0.2,0.5-0.5,0.6l-3.2,1.6c-0.1,0.1-0.3,0.1-0.5,0.2c-0.2,0-0.4,0-0.6,0c0,0,0,0-0.1,0
	c-0.1,0-0.1,0-0.2-0.1c-0.2-0.1-0.6-0.2-1.1-0.5c-0.5-0.2-1.1-0.6-1.7-1.2c-0.6-0.5-1.3-1.3-2.1-2.2c-0.7-0.9-1.5-2.1-2.2-3.5
	c-0.6-1.1-1-2.1-1.4-3.1C0.6,8.9,0.3,8.1,0.2,7.3C0.1,6.6,0,5.9,0,5.3c0-0.6,0-1.1,0.1-1.5c0.1-0.4,0.1-0.7,0.2-0.9
	c0.1-0.2,0.1-0.3,0.1-0.4c0.1-0.2,0.2-0.3,0.3-0.5C0.9,1.9,1,1.8,1.2,1.8l3.2-1.7C4.6,0,4.8,0,5,0c0.2,0,0.3,0.1,0.4,0.3
	c0.1,0.1,0.2,0.3,0.2,0.4L6.4,5c0,0.2,0,0.5-0.1,0.7S6,6.1,5.8,6.2L4.6,6.8c0,0-0.1,0-0.1,0.1C4.5,7,4.5,7,4.5,7c0,0.3,0,0.6,0.1,1
	c0.1,0.3,0.2,0.8,0.3,1.3c0.2,0.5,0.4,1.1,0.8,1.9c0.4,0.7,0.7,1.3,1,1.8c0.3,0.4,0.6,0.8,0.8,1s0.4,0.4,0.6,0.5l0.2,0.1
	c0,0,0.1,0,0.1,0c0.1,0,0.1,0,0.1,0l1.4-0.7c0.3-0.1,0.6-0.1,0.9-0.1c0.2,0.1,0.4,0.2,0.5,0.3l0,0l2.9,3.2
	C14.4,17.4,14.5,17.6,14.4,17.9z"/>
</svg>
