<?xml version="1.0" encoding="utf-8"?>
<!-- Generator: Adobe Illustrator 18.0.0, SVG Export Plug-In . SVG Version: 6.00 Build 0)  -->
<!DOCTYPE svg PUBLIC "-//W3C//DTD SVG 1.1//EN" "http://www.w3.org/Graphics/SVG/1.1/DTD/svg11.dtd">
<svg version="1.1" id="Camada_1" xmlns="http://www.w3.org/2000/svg" xmlns:xlink="http://www.w3.org/1999/xlink" x="0px" y="0px"
	 viewBox="0 0 32 32" enable-background="new 0 0 32 32" xml:space="preserve">
<path fill="#F96D11" d="M14.5,9.4L14.5,9.4c-0.3-0.2-0.6-0.4-1-0.4C12.7,9,12,9.7,12,10.5c0,0.4,0.2,0.8,0.5,1.1l0,0l4.8,4.4
	l-4.8,4.4l0,0c-0.3,0.3-0.5,0.7-0.5,1.1c0,0.8,0.7,1.5,1.5,1.5c0.4,0,0.7-0.2,1-0.4l0,0l6-5.5c0.3-0.3,0.5-0.7,0.5-1.1
	c0-0.4-0.2-0.8-0.5-1.1L14.5,9.4z M16,0C7.2,0,0,7.2,0,16c0,8.8,7.2,16,16,16s16-7.2,16-16C32,7.2,24.8,0,16,0z M16,29
	C8.8,29,3,23.2,3,16C3,8.8,8.8,3,16,3s13,5.8,13,13C29,23.2,23.2,29,16,29z"/>
</svg>
