<?xml version="1.0" encoding="utf-8"?>
<!-- Generator: Adobe Illustrator 18.0.0, SVG Export Plug-In . SVG Version: 6.00 Build 0)  -->
<!DOCTYPE svg PUBLIC "-//W3C//DTD SVG 1.1//EN" "http://www.w3.org/Graphics/SVG/1.1/DTD/svg11.dtd">
<svg version="1.1" id="Camada_1" xmlns="http://www.w3.org/2000/svg" xmlns:xlink="http://www.w3.org/1999/xlink" x="0px" y="0px"
	 viewBox="0 0 32 32" enable-background="new 0 0 32 32" xml:space="preserve">
<path fill="#F96D11" d="M17.5,22.6L17.5,22.6c0.3,0.2,0.6,0.4,1,0.4c0.8,0,1.5-0.7,1.5-1.5c0-0.4-0.2-0.8-0.5-1.1l0,0L14.7,16
	l4.8-4.4l0,0c0.3-0.3,0.5-0.7,0.5-1.1C20,9.7,19.3,9,18.5,9c-0.4,0-0.7,0.2-1,0.4l0,0l-6,5.5C11.2,15.2,11,15.6,11,16
	c0,0.4,0.2,0.8,0.5,1.1L17.5,22.6z M16,32c8.8,0,16-7.2,16-16c0-8.8-7.2-16-16-16S0,7.2,0,16C0,24.8,7.2,32,16,32z M16,3
	c7.2,0,13,5.8,13,13c0,7.2-5.8,13-13,13S3,23.2,3,16C3,8.8,8.8,3,16,3z"/>
</svg>
