<?xml version="1.0" encoding="utf-8"?>
<!-- Generator: Adobe Illustrator 18.0.0, SVG Export Plug-In . SVG Version: 6.00 Build 0)  -->
<!DOCTYPE svg PUBLIC "-//W3C//DTD SVG 1.1//EN" "http://www.w3.org/Graphics/SVG/1.1/DTD/svg11.dtd">
<svg version="1.1" id="Camada_1" xmlns="http://www.w3.org/2000/svg" xmlns:xlink="http://www.w3.org/1999/xlink" x="0px" y="0px"
	 viewBox="0 0 105 24.1" enable-background="new 0 0 105 24.1" xml:space="preserve">
<rect x="0" y="0" fill="#FFFFFF" width="105" height="24.1"/>
<path fill="#F86F11" d="M101,24.1h4.1V0H101v1.9h1.9v20.4H101V24.1z"/>
<path fill="#FA460F" d="M4.1,0L0,0l0,24.1h4.1v-1.9H2.2V1.9h1.9V0z"/>
<g>
	<path fill="#E93D0C" d="M15.6,14v5.8h-2V5h4.7c1.3,0,2.4,0.4,3.1,1.2c0.7,0.8,1.1,1.9,1.1,3.3c0,1.4-0.4,2.5-1.1,3.3
		c-0.7,0.8-1.8,1.2-3.1,1.2H15.6z M15.6,12.4h2.6c0.7,0,1.3-0.3,1.6-0.8s0.5-1.2,0.5-2.1c0-0.9-0.2-1.6-0.5-2.1
		c-0.4-0.5-0.9-0.8-1.6-0.8h-2.6V12.4z"/>
	<path fill="#E93D0C" d="M28.2,16h-4.4l-1,3.8h-2.1L25,5h2l4.3,14.8h-2.1L28.2,16z M24.2,14.5h3.6L26,7.8h0L24.2,14.5z"/>
	<path fill="#E93D0C" d="M33.6,13.5v6.4h-2V5H36c1.4,0,2.4,0.4,3.1,1.1s1,1.8,1,3.1c0,0.8-0.2,1.5-0.5,2.1c-0.4,0.6-0.9,1-1.6,1.3
		c0.7,0.3,1.2,0.7,1.5,1.3c0.3,0.6,0.5,1.3,0.5,2.2v1.3c0,0.5,0,0.9,0.1,1.3s0.2,0.7,0.4,0.9v0.3h-2.1c-0.2-0.2-0.4-0.6-0.4-1
		C38,18.4,38,17.9,38,17.4v-1.3c0-0.8-0.2-1.5-0.5-2c-0.3-0.5-0.8-0.7-1.4-0.7H33.6z M33.6,11.9h2.3c0.8,0,1.4-0.2,1.7-0.7
		c0.4-0.4,0.5-1.1,0.5-1.9c0-0.9-0.2-1.5-0.5-2S36.7,6.6,36,6.6h-2.4V11.9z"/>
	<path fill="#E93D0C" d="M50,15.4c0,1.5-0.4,2.7-1.2,3.5c-0.8,0.8-1.8,1.2-3.2,1.2c-1.4,0-2.5-0.5-3.3-1.4s-1.2-2.3-1.2-4.1v-4.1
		c0-1.8,0.4-3.2,1.2-4.1c0.8-1,1.9-1.4,3.3-1.4c1.4,0,2.5,0.4,3.2,1.2c0.7,0.8,1.1,2,1.2,3.5h-2c0-1.1-0.2-1.9-0.6-2.4
		s-1-0.7-1.8-0.7c-0.8,0-1.4,0.3-1.8,1s-0.6,1.7-0.6,3v4.1c0,1.3,0.2,2.3,0.6,3c0.4,0.7,1,1,1.8,1c0.8,0,1.4-0.2,1.8-0.7
		c0.4-0.5,0.6-1.3,0.6-2.4H50z"/>
	<path fill="#E93D0C" d="M57.8,13h-5.2v5.3h6v1.6h-8.1V5h8v1.6h-6v4.8h5.2V13z"/>
	<path fill="#E93D0C" d="M61.3,19.9h-2V5h2V19.9z"/>
	<path fill="#E93D0C" d="M64.8,13.5v6.4h-2V5h4.5c1.4,0,2.4,0.4,3.1,1.1s1,1.8,1,3.1c0,0.8-0.2,1.5-0.5,2.1c-0.4,0.6-0.9,1-1.6,1.3
		c0.7,0.3,1.2,0.7,1.5,1.3s0.5,1.3,0.5,2.2v1.3c0,0.5,0,0.9,0.1,1.3c0.1,0.4,0.2,0.7,0.4,0.9v0.3h-2.1c-0.2-0.2-0.4-0.6-0.4-1
		c-0.1-0.4-0.1-0.9-0.1-1.4v-1.3c0-0.8-0.2-1.5-0.5-2c-0.3-0.5-0.8-0.7-1.4-0.7H64.8z M64.8,11.9H67c0.8,0,1.4-0.2,1.7-0.7
		c0.4-0.4,0.5-1.1,0.5-1.9c0-0.9-0.2-1.5-0.5-2c-0.3-0.5-0.9-0.7-1.6-0.7h-2.4V11.9z"/>
	<path fill="#E93D0C" d="M81.8,14.5c0,1.8-0.4,3.2-1.3,4.1s-2,1.4-3.5,1.4c-1.5,0-2.6-0.5-3.4-1.4s-1.2-2.3-1.2-4.1v-4.1
		c0-1.8,0.4-3.2,1.2-4.1c0.8-1,2-1.5,3.4-1.5c1.5,0,2.7,0.5,3.5,1.5c0.9,1,1.3,2.4,1.3,4.1V14.5z M79.8,10.4c0-1.3-0.2-2.3-0.7-3
		c-0.5-0.7-1.2-1-2.1-1c-0.9,0-1.5,0.3-2,1c-0.4,0.7-0.7,1.6-0.7,3v4.1c0,1.3,0.2,2.3,0.7,3c0.4,0.7,1.1,1,2,1c0.9,0,1.6-0.3,2.1-1
		s0.7-1.7,0.7-3V10.4z"/>
	<path fill="#E93D0C" d="M89.3,16.1c0-0.7-0.2-1.3-0.5-1.7s-1-0.8-1.9-1.2c-1.4-0.4-2.4-1-3.1-1.7c-0.7-0.7-1.1-1.6-1.1-2.7
		c0-1.2,0.4-2.2,1.2-2.9c0.8-0.7,1.8-1.1,3.1-1.1c1.3,0,2.4,0.4,3.2,1.3C91,7,91.4,8,91.4,9.3h-2c0-0.9-0.2-1.6-0.6-2.1
		s-1-0.8-1.8-0.8c-0.7,0-1.3,0.2-1.7,0.7c-0.4,0.4-0.6,1-0.6,1.7c0,0.6,0.2,1.2,0.6,1.6c0.4,0.4,1.1,0.8,2.1,1.2
		c1.3,0.4,2.3,1,3,1.7c0.7,0.7,1,1.7,1,2.8c0,1.2-0.4,2.2-1.2,2.9s-1.8,1-3.2,1c-1.3,0-2.4-0.4-3.3-1.2c-0.9-0.8-1.4-1.9-1.4-3.4h2
		c0,1,0.2,1.8,0.7,2.3c0.5,0.5,1.1,0.7,2,0.7c0.7,0,1.3-0.2,1.7-0.6S89.3,16.9,89.3,16.1z"/>
</g>
</svg>
